<svg xmlns="http://www.w3.org/2000/svg" xmlns:xlink="http://www.w3.org/1999/xlink" version="1.1" width="256" height="256" viewBox="0 0 256 256" xml:space="preserve">

<defs>
</defs>
  <g style="stroke: none; stroke-width: 0; stroke-dasharray: none; stroke-linecap: butt; stroke-linejoin: miter; stroke-miterlimit: 10; fill: none; fill-rule: nonzero; opacity: 1;" transform="translate(1.4065934065934016 1.4065934065934016) scale(2.81 2.81)" >
	<circle cx="45.001" cy="47.211" r="42.791" style="stroke: none; stroke-width: 1; stroke-dasharray: none; stroke-linecap: butt; stroke-linejoin: miter; stroke-miterlimit: 10; fill: rgb(232,129,2); fill-rule: nonzero; opacity: 1;" transform="  matrix(1 0 0 1 0 0) "/>
    <circle cx="45" cy="42.79" r="35" style="stroke: none; stroke-width: 1; stroke-dasharray: none; stroke-linecap: butt; stroke-linejoin: miter; stroke-miterlimit: 10; fill: rgb(243,158,9); fill-rule: nonzero; opacity: 1;" transform="  matrix(1 0 0 1 0 0) "/>
    <path d="M 45 13.791 c 17.977 0 32.78 13.555 34.766 31 c 0.15 -1.313 0.234 -2.647 0.234 -4 c 0 -19.33 -15.67 -35 -35 -35 s -35 15.67 -35 35 c 0 1.353 0.085 2.687 0.234 4 C 12.22 27.346 27.023 13.791 45 13.791 z" style="stroke: none; stroke-width: 1; stroke-dasharray: none; stroke-linecap: butt; stroke-linejoin: miter; stroke-miterlimit: 10; fill: rgb(232,129,2); fill-rule: nonzero; opacity: 1;" transform=" matrix(1 0 0 1 0 0) " stroke-linecap="round" />
    <path d="M 45 0 C 21.367 0 2.209 19.158 2.209 42.791 c 0 23.633 19.158 42.791 42.791 42.791 s 42.791 -19.158 42.791 -42.791 C 87.791 19.158 68.633 0 45 0 z M 45 75.928 c -18.301 0 -33.137 -14.836 -33.137 -33.137 C 11.863 24.49 26.699 9.653 45 9.653 S 78.137 24.49 78.137 42.791 C 78.137 61.092 63.301 75.928 45 75.928 z" style="stroke: none; stroke-width: 1; stroke-dasharray: none; stroke-linecap: butt; stroke-linejoin: miter; stroke-miterlimit: 10; fill: rgb(254,236,154); fill-rule: nonzero; opacity: 1;" transform=" matrix(1 0 0 1 0 0) " stroke-linecap="round" />
    <path d="M 45 0 C 21.367 0 2.209 19.158 2.209 42.791 c 0 23.633 19.158 42.791 42.791 42.791 s 42.791 -19.158 42.791 -42.791 C 87.791 19.158 68.633 0 45 0 z M 45 75.928 c -18.301 0 -33.137 -14.836 -33.137 -33.137 C 11.863 24.49 26.699 9.653 45 9.653 S 78.137 24.49 78.137 42.791 C 78.137 61.092 63.301 75.928 45 75.928 z" style="stroke: none; stroke-width: 1; stroke-dasharray: none; stroke-linecap: butt; stroke-linejoin: miter; stroke-miterlimit: 10; fill: rgb(253,216,53); fill-rule: nonzero; opacity: 1;" transform=" matrix(1 0 0 1 0 0) " stroke-linecap="round" />
    <path d="M 83.422 23.947 l -7.339 7.339 c 1.241 3.352 1.947 6.961 2.035 10.723 l 8.623 -8.623 C 85.999 30.079 84.88 26.916 83.422 23.947 z" style="stroke: none; stroke-width: 1; stroke-dasharray: none; stroke-linecap: butt; stroke-linejoin: miter; stroke-miterlimit: 10; fill: rgb(254,236,154); fill-rule: nonzero; opacity: 1;" transform=" matrix(1 0 0 1 0 0) " stroke-linecap="round" />
    <path d="M 44.218 75.909 c -3.762 -0.087 -7.371 -0.794 -10.723 -2.035 l -7.339 7.339 c 2.969 1.459 6.132 2.578 9.439 3.32 L 44.218 75.909 z" style="stroke: none; stroke-width: 1; stroke-dasharray: none; stroke-linecap: butt; stroke-linejoin: miter; stroke-miterlimit: 10; fill: rgb(254,236,154); fill-rule: nonzero; opacity: 1;" transform=" matrix(1 0 0 1 0 0) " stroke-linecap="round" />
    <path d="M 15.236 57.365 l -7.118 7.118 c 3.188 5.408 7.526 10.054 12.685 13.598 l 6.975 -6.975 C 22.396 67.826 18.027 63.053 15.236 57.365 z" style="stroke: none; stroke-width: 1; stroke-dasharray: none; stroke-linecap: butt; stroke-linejoin: miter; stroke-miterlimit: 10; fill: rgb(254,236,154); fill-rule: nonzero; opacity: 1;" transform=" matrix(1 0 0 1 0 0) " stroke-linecap="round" />
    <path d="M 66.692 5.909 l -7.118 7.118 c 5.688 2.791 10.461 7.16 13.741 12.541 l 6.975 -6.975 C 76.745 13.435 72.1 9.097 66.692 5.909 z" style="stroke: none; stroke-width: 1; stroke-dasharray: none; stroke-linecap: butt; stroke-linejoin: miter; stroke-miterlimit: 10; fill: rgb(254,236,154); fill-rule: nonzero; opacity: 1;" transform=" matrix(1 0 0 1 0 0) " stroke-linecap="round" />
    <path d="M 49.861 10.012 c 1.441 0.212 2.849 0.522 4.223 0.913 l 7.565 -7.565 c -1.224 -0.517 -2.478 -0.976 -3.756 -1.379 L 49.861 10.012 z" style="stroke: none; stroke-width: 1; stroke-dasharray: none; stroke-linecap: butt; stroke-linejoin: miter; stroke-miterlimit: 10; fill: rgb(254,236,154); fill-rule: nonzero; opacity: 1;" transform=" matrix(1 0 0 1 0 0) " stroke-linecap="round" />
    <path d="M 5.569 59.44 l 7.565 -7.565 c -0.391 -1.374 -0.701 -2.782 -0.913 -4.223 L 4.19 55.683 C 4.593 56.962 5.052 58.216 5.569 59.44 z" style="stroke: none; stroke-width: 1; stroke-dasharray: none; stroke-linecap: butt; stroke-linejoin: miter; stroke-miterlimit: 10; fill: rgb(254,236,154); fill-rule: nonzero; opacity: 1;" transform=" matrix(1 0 0 1 0 0) " stroke-linecap="round" />
    <path d="M 61.053 48.434 c 0.061 -0.113 0.113 -0.228 0.159 -0.346 c 0.018 -0.046 0.039 -0.089 0.054 -0.136 c 0.056 -0.168 0.1 -0.339 0.126 -0.512 c 0.003 -0.021 0.002 -0.043 0.005 -0.064 c 0.019 -0.153 0.026 -0.306 0.022 -0.46 c -0.002 -0.058 -0.008 -0.115 -0.013 -0.172 c -0.011 -0.125 -0.029 -0.249 -0.056 -0.373 c -0.012 -0.056 -0.023 -0.111 -0.039 -0.167 c -0.044 -0.159 -0.099 -0.315 -0.17 -0.467 c -0.006 -0.013 -0.008 -0.027 -0.014 -0.04 c -0.001 -0.003 -0.003 -0.005 -0.004 -0.007 c -0.071 -0.145 -0.152 -0.287 -0.248 -0.422 l -13.426 -19 C 46.888 25.473 45.974 25 45 25 s -1.888 0.473 -2.45 1.269 l -13.426 19 c -0.095 0.135 -0.176 0.275 -0.247 0.42 c -0.002 0.003 -0.004 0.006 -0.006 0.009 c -0.008 0.017 -0.011 0.036 -0.019 0.053 c -0.067 0.146 -0.121 0.297 -0.163 0.45 c -0.016 0.059 -0.028 0.118 -0.041 0.178 c -0.025 0.119 -0.043 0.238 -0.053 0.358 c -0.005 0.062 -0.012 0.123 -0.014 0.184 c -0.004 0.147 0.004 0.293 0.021 0.439 c 0.003 0.028 0.002 0.056 0.006 0.083 c 0.026 0.172 0.069 0.341 0.125 0.508 c 0.016 0.049 0.038 0.094 0.057 0.142 c 0.046 0.116 0.097 0.23 0.157 0.341 c 0.03 0.056 0.063 0.11 0.097 0.164 c 0.028 0.044 0.049 0.091 0.08 0.134 l 13.426 19 C 43.112 68.527 44.026 69 45 69 s 1.888 -0.473 2.45 -1.269 l 13.426 -19 c 0.03 -0.043 0.052 -0.09 0.08 -0.134 C 60.99 48.544 61.023 48.49 61.053 48.434 z M 45 33.198 l 8.93 12.638 L 45 50.141 l -8.931 -4.304 L 45 33.198 z M 45 60.802 l -4.288 -6.068 l 2.985 1.439 c 0.411 0.198 0.857 0.298 1.302 0.298 s 0.891 -0.1 1.303 -0.298 l 2.984 -1.438 L 45 60.802 z" style="stroke: none; stroke-width: 1; stroke-dasharray: none; stroke-linecap: butt; stroke-linejoin: miter; stroke-miterlimit: 10; fill: rgb(232,129,2); fill-rule: nonzero; opacity: 1;" transform=" matrix(1 0 0 1 0 0) " stroke-linecap="round" />
    <path d="M 61.053 44.434 c 0.061 -0.113 0.113 -0.228 0.159 -0.346 c 0.018 -0.046 0.039 -0.089 0.054 -0.136 c 0.056 -0.168 0.1 -0.339 0.126 -0.512 c 0.003 -0.021 0.002 -0.043 0.005 -0.064 c 0.019 -0.153 0.026 -0.306 0.022 -0.46 c -0.002 -0.058 -0.008 -0.115 -0.013 -0.172 c -0.011 -0.125 -0.029 -0.249 -0.056 -0.373 c -0.012 -0.056 -0.023 -0.111 -0.039 -0.167 c -0.044 -0.159 -0.099 -0.315 -0.17 -0.467 c -0.006 -0.013 -0.008 -0.027 -0.014 -0.04 c -0.001 -0.003 -0.003 -0.005 -0.004 -0.007 c -0.071 -0.145 -0.152 -0.287 -0.248 -0.422 l -13.426 -19 C 46.888 21.473 45.974 21 45 21 s -1.888 0.473 -2.45 1.269 l -13.426 19 c -0.095 0.135 -0.176 0.275 -0.247 0.42 c -0.002 0.003 -0.004 0.006 -0.006 0.009 c -0.008 0.017 -0.011 0.036 -0.019 0.053 c -0.067 0.146 -0.121 0.297 -0.163 0.45 c -0.016 0.059 -0.028 0.118 -0.041 0.178 c -0.025 0.119 -0.043 0.238 -0.053 0.358 c -0.005 0.062 -0.012 0.123 -0.014 0.184 c -0.004 0.147 0.004 0.293 0.021 0.439 c 0.003 0.028 0.002 0.056 0.006 0.083 c 0.026 0.172 0.069 0.341 0.125 0.508 c 0.016 0.049 0.038 0.094 0.057 0.142 c 0.046 0.116 0.097 0.23 0.157 0.341 c 0.03 0.056 0.063 0.11 0.097 0.164 c 0.028 0.044 0.049 0.091 0.08 0.134 l 13.426 19 C 43.112 64.527 44.026 65 45 65 s 1.888 -0.473 2.45 -1.269 l 13.426 -19 c 0.03 -0.043 0.052 -0.09 0.08 -0.134 C 60.99 44.544 61.023 44.49 61.053 44.434 z M 45 29.198 l 8.93 12.638 L 45 46.141 l -8.931 -4.304 L 45 29.198 z M 45 56.802 l -4.288 -6.068 l 2.985 1.439 c 0.411 0.198 0.857 0.298 1.302 0.298 s 0.891 -0.1 1.303 -0.298 l 2.984 -1.438 L 45 56.802 z" style="stroke: none; stroke-width: 1; stroke-dasharray: none; stroke-linecap: butt; stroke-linejoin: miter; stroke-miterlimit: 10; fill: rgb(253,216,53); fill-rule: nonzero; opacity: 1;" transform=" matrix(1 0 0 1 0 0) " stroke-linecap="round" />
</g>
</svg>
